<?xml version="1.0" encoding="UTF-8"?>
<!DOCTYPE svg
  PUBLIC '-//W3C//DTD SVG 1.1//EN'
  'http://www.w3.org/Graphics/SVG/1.1/DTD/svg11.dtd'>
<svg version="1.1" xmlns="http://www.w3.org/2000/svg" width="203.480mm" height="23.764mm">
    <!--Autogenerated with python-barcode 0.14.0-->
    <g id="barcode_group">
        <rect width="100%" height="100%" style="fill:white"/>
        <rect x="2.540mm" y="1.000mm" width="0.400mm" height="15.000mm" style="fill:black;"/>
        <rect x="3.140mm" y="1.000mm" width="0.200mm" height="15.000mm" style="fill:black;"/>
        <rect x="3.740mm" y="1.000mm" width="0.200mm" height="15.000mm" style="fill:black;"/>
        <rect x="4.740mm" y="1.000mm" width="0.800mm" height="15.000mm" style="fill:black;"/>
        <rect x="5.740mm" y="1.000mm" width="0.400mm" height="15.000mm" style="fill:black;"/>
        <rect x="6.340mm" y="1.000mm" width="0.400mm" height="15.000mm" style="fill:black;"/>
        <rect x="6.940mm" y="1.000mm" width="0.400mm" height="15.000mm" style="fill:black;"/>
        <rect x="7.740mm" y="1.000mm" width="0.400mm" height="15.000mm" style="fill:black;"/>
        <rect x="8.540mm" y="1.000mm" width="0.400mm" height="15.000mm" style="fill:black;"/>
        <rect x="9.140mm" y="1.000mm" width="0.200mm" height="15.000mm" style="fill:black;"/>
        <rect x="10.140mm" y="1.000mm" width="0.400mm" height="15.000mm" style="fill:black;"/>
        <rect x="10.740mm" y="1.000mm" width="0.200mm" height="15.000mm" style="fill:black;"/>
        <rect x="11.340mm" y="1.000mm" width="0.200mm" height="15.000mm" style="fill:black;"/>
        <rect x="11.940mm" y="1.000mm" width="0.800mm" height="15.000mm" style="fill:black;"/>
        <rect x="12.940mm" y="1.000mm" width="0.200mm" height="15.000mm" style="fill:black;"/>
        <rect x="13.540mm" y="1.000mm" width="0.200mm" height="15.000mm" style="fill:black;"/>
        <rect x="13.940mm" y="1.000mm" width="0.400mm" height="15.000mm" style="fill:black;"/>
        <rect x="14.740mm" y="1.000mm" width="0.200mm" height="15.000mm" style="fill:black;"/>
        <rect x="15.740mm" y="1.000mm" width="0.800mm" height="15.000mm" style="fill:black;"/>
        <rect x="16.740mm" y="1.000mm" width="0.600mm" height="15.000mm" style="fill:black;"/>
        <rect x="17.540mm" y="1.000mm" width="0.200mm" height="15.000mm" style="fill:black;"/>
        <rect x="17.940mm" y="1.000mm" width="0.200mm" height="15.000mm" style="fill:black;"/>
        <rect x="18.340mm" y="1.000mm" width="0.200mm" height="15.000mm" style="fill:black;"/>
        <rect x="18.940mm" y="1.000mm" width="0.400mm" height="15.000mm" style="fill:black;"/>
        <rect x="20.140mm" y="1.000mm" width="0.200mm" height="15.000mm" style="fill:black;"/>
        <rect x="21.140mm" y="1.000mm" width="0.200mm" height="15.000mm" style="fill:black;"/>
        <rect x="21.540mm" y="1.000mm" width="0.400mm" height="15.000mm" style="fill:black;"/>
        <rect x="22.340mm" y="1.000mm" width="0.200mm" height="15.000mm" style="fill:black;"/>
        <rect x="23.140mm" y="1.000mm" width="0.800mm" height="15.000mm" style="fill:black;"/>
        <rect x="24.140mm" y="1.000mm" width="0.200mm" height="15.000mm" style="fill:black;"/>
        <rect x="24.540mm" y="1.000mm" width="0.200mm" height="15.000mm" style="fill:black;"/>
        <rect x="25.540mm" y="1.000mm" width="0.200mm" height="15.000mm" style="fill:black;"/>
        <rect x="26.140mm" y="1.000mm" width="0.400mm" height="15.000mm" style="fill:black;"/>
        <rect x="26.740mm" y="1.000mm" width="0.200mm" height="15.000mm" style="fill:black;"/>
        <rect x="27.140mm" y="1.000mm" width="0.400mm" height="15.000mm" style="fill:black;"/>
        <rect x="27.940mm" y="1.000mm" width="0.200mm" height="15.000mm" style="fill:black;"/>
        <rect x="28.940mm" y="1.000mm" width="0.400mm" height="15.000mm" style="fill:black;"/>
        <rect x="29.740mm" y="1.000mm" width="0.400mm" height="15.000mm" style="fill:black;"/>
        <rect x="30.540mm" y="1.000mm" width="0.400mm" height="15.000mm" style="fill:black;"/>
        <rect x="31.140mm" y="1.000mm" width="0.600mm" height="15.000mm" style="fill:black;"/>
        <rect x="32.140mm" y="1.000mm" width="0.200mm" height="15.000mm" style="fill:black;"/>
        <rect x="32.740mm" y="1.000mm" width="0.400mm" height="15.000mm" style="fill:black;"/>
        <rect x="33.340mm" y="1.000mm" width="0.400mm" height="15.000mm" style="fill:black;"/>
        <rect x="33.940mm" y="1.000mm" width="0.400mm" height="15.000mm" style="fill:black;"/>
        <rect x="34.740mm" y="1.000mm" width="0.400mm" height="15.000mm" style="fill:black;"/>
        <rect x="35.540mm" y="1.000mm" width="0.400mm" height="15.000mm" style="fill:black;"/>
        <rect x="36.340mm" y="1.000mm" width="0.400mm" height="15.000mm" style="fill:black;"/>
        <rect x="37.140mm" y="1.000mm" width="0.400mm" height="15.000mm" style="fill:black;"/>
        <rect x="37.740mm" y="1.000mm" width="0.200mm" height="15.000mm" style="fill:black;"/>
        <rect x="38.140mm" y="1.000mm" width="0.800mm" height="15.000mm" style="fill:black;"/>
        <rect x="39.340mm" y="1.000mm" width="0.200mm" height="15.000mm" style="fill:black;"/>
        <rect x="39.940mm" y="1.000mm" width="0.200mm" height="15.000mm" style="fill:black;"/>
        <rect x="40.540mm" y="1.000mm" width="0.200mm" height="15.000mm" style="fill:black;"/>
        <rect x="40.940mm" y="1.000mm" width="0.400mm" height="15.000mm" style="fill:black;"/>
        <rect x="42.140mm" y="1.000mm" width="0.800mm" height="15.000mm" style="fill:black;"/>
        <rect x="43.140mm" y="1.000mm" width="0.600mm" height="15.000mm" style="fill:black;"/>
        <rect x="43.940mm" y="1.000mm" width="0.200mm" height="15.000mm" style="fill:black;"/>
        <rect x="44.340mm" y="1.000mm" width="0.200mm" height="15.000mm" style="fill:black;"/>
        <rect x="44.740mm" y="1.000mm" width="0.200mm" height="15.000mm" style="fill:black;"/>
        <rect x="45.340mm" y="1.000mm" width="0.800mm" height="15.000mm" style="fill:black;"/>
        <rect x="46.540mm" y="1.000mm" width="0.400mm" height="15.000mm" style="fill:black;"/>
        <rect x="47.340mm" y="1.000mm" width="0.200mm" height="15.000mm" style="fill:black;"/>
        <rect x="47.740mm" y="1.000mm" width="0.200mm" height="15.000mm" style="fill:black;"/>
        <rect x="48.740mm" y="1.000mm" width="0.200mm" height="15.000mm" style="fill:black;"/>
        <rect x="49.140mm" y="1.000mm" width="0.400mm" height="15.000mm" style="fill:black;"/>
        <rect x="49.940mm" y="1.000mm" width="0.200mm" height="15.000mm" style="fill:black;"/>
        <rect x="50.940mm" y="1.000mm" width="0.400mm" height="15.000mm" style="fill:black;"/>
        <rect x="51.740mm" y="1.000mm" width="0.400mm" height="15.000mm" style="fill:black;"/>
        <rect x="52.540mm" y="1.000mm" width="0.400mm" height="15.000mm" style="fill:black;"/>
        <rect x="53.140mm" y="1.000mm" width="0.200mm" height="15.000mm" style="fill:black;"/>
        <rect x="53.540mm" y="1.000mm" width="0.400mm" height="15.000mm" style="fill:black;"/>
        <rect x="54.340mm" y="1.000mm" width="0.600mm" height="15.000mm" style="fill:black;"/>
        <rect x="55.340mm" y="1.000mm" width="0.400mm" height="15.000mm" style="fill:black;"/>
        <rect x="55.940mm" y="1.000mm" width="0.400mm" height="15.000mm" style="fill:black;"/>
        <rect x="56.740mm" y="1.000mm" width="0.400mm" height="15.000mm" style="fill:black;"/>
        <rect x="57.540mm" y="1.000mm" width="0.400mm" height="15.000mm" style="fill:black;"/>
        <rect x="58.340mm" y="1.000mm" width="0.400mm" height="15.000mm" style="fill:black;"/>
        <rect x="59.140mm" y="1.000mm" width="0.400mm" height="15.000mm" style="fill:black;"/>
        <rect x="59.740mm" y="1.000mm" width="0.400mm" height="15.000mm" style="fill:black;"/>
        <rect x="60.940mm" y="1.000mm" width="0.200mm" height="15.000mm" style="fill:black;"/>
        <rect x="61.340mm" y="1.000mm" width="0.200mm" height="15.000mm" style="fill:black;"/>
        <rect x="61.940mm" y="1.000mm" width="0.200mm" height="15.000mm" style="fill:black;"/>
        <rect x="62.540mm" y="1.000mm" width="0.200mm" height="15.000mm" style="fill:black;"/>
        <rect x="62.940mm" y="1.000mm" width="0.400mm" height="15.000mm" style="fill:black;"/>
        <rect x="64.140mm" y="1.000mm" width="0.800mm" height="15.000mm" style="fill:black;"/>
        <rect x="65.140mm" y="1.000mm" width="0.600mm" height="15.000mm" style="fill:black;"/>
        <rect x="65.940mm" y="1.000mm" width="0.200mm" height="15.000mm" style="fill:black;"/>
        <rect x="66.340mm" y="1.000mm" width="0.200mm" height="15.000mm" style="fill:black;"/>
        <rect x="66.740mm" y="1.000mm" width="0.400mm" height="15.000mm" style="fill:black;"/>
        <rect x="67.540mm" y="1.000mm" width="0.200mm" height="15.000mm" style="fill:black;"/>
        <rect x="68.540mm" y="1.000mm" width="0.400mm" height="15.000mm" style="fill:black;"/>
        <rect x="69.340mm" y="1.000mm" width="0.400mm" height="15.000mm" style="fill:black;"/>
        <rect x="70.140mm" y="1.000mm" width="0.400mm" height="15.000mm" style="fill:black;"/>
        <rect x="70.740mm" y="1.000mm" width="0.600mm" height="15.000mm" style="fill:black;"/>
        <rect x="71.740mm" y="1.000mm" width="0.200mm" height="15.000mm" style="fill:black;"/>
        <rect x="72.340mm" y="1.000mm" width="0.400mm" height="15.000mm" style="fill:black;"/>
        <rect x="72.940mm" y="1.000mm" width="0.400mm" height="15.000mm" style="fill:black;"/>
        <rect x="73.540mm" y="1.000mm" width="0.400mm" height="15.000mm" style="fill:black;"/>
        <rect x="74.340mm" y="1.000mm" width="0.400mm" height="15.000mm" style="fill:black;"/>
        <rect x="75.140mm" y="1.000mm" width="0.400mm" height="15.000mm" style="fill:black;"/>
        <rect x="75.940mm" y="1.000mm" width="0.400mm" height="15.000mm" style="fill:black;"/>
        <rect x="76.740mm" y="1.000mm" width="0.400mm" height="15.000mm" style="fill:black;"/>
        <rect x="77.340mm" y="1.000mm" width="0.600mm" height="15.000mm" style="fill:black;"/>
        <rect x="78.140mm" y="1.000mm" width="0.800mm" height="15.000mm" style="fill:black;"/>
        <rect x="79.140mm" y="1.000mm" width="0.200mm" height="15.000mm" style="fill:black;"/>
        <rect x="79.540mm" y="1.000mm" width="0.200mm" height="15.000mm" style="fill:black;"/>
        <rect x="80.140mm" y="1.000mm" width="0.800mm" height="15.000mm" style="fill:black;"/>
        <rect x="81.340mm" y="1.000mm" width="0.200mm" height="15.000mm" style="fill:black;"/>
        <rect x="81.740mm" y="1.000mm" width="0.200mm" height="15.000mm" style="fill:black;"/>
        <rect x="82.740mm" y="1.000mm" width="0.200mm" height="15.000mm" style="fill:black;"/>
        <rect x="83.140mm" y="1.000mm" width="0.400mm" height="15.000mm" style="fill:black;"/>
        <rect x="83.940mm" y="1.000mm" width="0.600mm" height="15.000mm" style="fill:black;"/>
        <rect x="84.740mm" y="1.000mm" width="0.400mm" height="15.000mm" style="fill:black;"/>
        <rect x="85.340mm" y="1.000mm" width="0.600mm" height="15.000mm" style="fill:black;"/>
        <rect x="86.140mm" y="1.000mm" width="0.600mm" height="15.000mm" style="fill:black;"/>
        <rect x="87.140mm" y="1.000mm" width="0.200mm" height="15.000mm" style="fill:black;"/>
        <rect x="87.540mm" y="1.000mm" width="0.400mm" height="15.000mm" style="fill:black;"/>
        <rect x="88.340mm" y="1.000mm" width="0.200mm" height="15.000mm" style="fill:black;"/>
        <rect x="88.940mm" y="1.000mm" width="0.600mm" height="15.000mm" style="fill:black;"/>
        <rect x="89.740mm" y="1.000mm" width="0.400mm" height="15.000mm" style="fill:black;"/>
        <rect x="90.540mm" y="1.000mm" width="0.600mm" height="15.000mm" style="fill:black;"/>
        <rect x="91.340mm" y="1.000mm" width="0.800mm" height="15.000mm" style="fill:black;"/>
        <rect x="92.340mm" y="1.000mm" width="0.200mm" height="15.000mm" style="fill:black;"/>
        <rect x="92.740mm" y="1.000mm" width="0.200mm" height="15.000mm" style="fill:black;"/>
        <rect x="93.340mm" y="1.000mm" width="0.800mm" height="15.000mm" style="fill:black;"/>
        <rect x="94.540mm" y="1.000mm" width="0.200mm" height="15.000mm" style="fill:black;"/>
        <rect x="94.940mm" y="1.000mm" width="0.200mm" height="15.000mm" style="fill:black;"/>
        <rect x="95.540mm" y="1.000mm" width="0.200mm" height="15.000mm" style="fill:black;"/>
        <rect x="96.540mm" y="1.000mm" width="0.400mm" height="15.000mm" style="fill:black;"/>
        <rect x="97.140mm" y="1.000mm" width="0.200mm" height="15.000mm" style="fill:black;"/>
        <rect x="97.740mm" y="1.000mm" width="0.200mm" height="15.000mm" style="fill:black;"/>
        <rect x="98.740mm" y="1.000mm" width="0.400mm" height="15.000mm" style="fill:black;"/>
        <rect x="99.340mm" y="1.000mm" width="0.400mm" height="15.000mm" style="fill:black;"/>
        <rect x="100.140mm" y="1.000mm" width="0.200mm" height="15.000mm" style="fill:black;"/>
        <rect x="100.540mm" y="1.000mm" width="0.600mm" height="15.000mm" style="fill:black;"/>
        <rect x="101.540mm" y="1.000mm" width="0.200mm" height="15.000mm" style="fill:black;"/>
        <rect x="102.540mm" y="1.000mm" width="0.200mm" height="15.000mm" style="fill:black;"/>
        <rect x="102.940mm" y="1.000mm" width="0.400mm" height="15.000mm" style="fill:black;"/>
        <rect x="103.740mm" y="1.000mm" width="0.600mm" height="15.000mm" style="fill:black;"/>
        <rect x="104.540mm" y="1.000mm" width="0.800mm" height="15.000mm" style="fill:black;"/>
        <rect x="105.540mm" y="1.000mm" width="0.200mm" height="15.000mm" style="fill:black;"/>
        <rect x="105.940mm" y="1.000mm" width="0.200mm" height="15.000mm" style="fill:black;"/>
        <rect x="106.540mm" y="1.000mm" width="0.800mm" height="15.000mm" style="fill:black;"/>
        <rect x="107.740mm" y="1.000mm" width="0.200mm" height="15.000mm" style="fill:black;"/>
        <rect x="108.140mm" y="1.000mm" width="0.200mm" height="15.000mm" style="fill:black;"/>
        <rect x="109.140mm" y="1.000mm" width="0.200mm" height="15.000mm" style="fill:black;"/>
        <rect x="109.540mm" y="1.000mm" width="0.400mm" height="15.000mm" style="fill:black;"/>
        <rect x="110.340mm" y="1.000mm" width="0.200mm" height="15.000mm" style="fill:black;"/>
        <rect x="110.940mm" y="1.000mm" width="0.600mm" height="15.000mm" style="fill:black;"/>
        <rect x="111.940mm" y="1.000mm" width="0.400mm" height="15.000mm" style="fill:black;"/>
        <rect x="112.540mm" y="1.000mm" width="0.200mm" height="15.000mm" style="fill:black;"/>
        <rect x="112.940mm" y="1.000mm" width="0.400mm" height="15.000mm" style="fill:black;"/>
        <rect x="113.740mm" y="1.000mm" width="0.200mm" height="15.000mm" style="fill:black;"/>
        <rect x="114.740mm" y="1.000mm" width="0.200mm" height="15.000mm" style="fill:black;"/>
        <rect x="115.340mm" y="1.000mm" width="0.600mm" height="15.000mm" style="fill:black;"/>
        <rect x="116.140mm" y="1.000mm" width="0.400mm" height="15.000mm" style="fill:black;"/>
        <rect x="116.940mm" y="1.000mm" width="0.400mm" height="15.000mm" style="fill:black;"/>
        <rect x="117.740mm" y="1.000mm" width="0.400mm" height="15.000mm" style="fill:black;"/>
        <rect x="118.540mm" y="1.000mm" width="0.400mm" height="15.000mm" style="fill:black;"/>
        <rect x="119.140mm" y="1.000mm" width="0.200mm" height="15.000mm" style="fill:black;"/>
        <rect x="119.540mm" y="1.000mm" width="0.400mm" height="15.000mm" style="fill:black;"/>
        <rect x="120.340mm" y="1.000mm" width="0.600mm" height="15.000mm" style="fill:black;"/>
        <rect x="121.340mm" y="1.000mm" width="0.400mm" height="15.000mm" style="fill:black;"/>
        <rect x="121.940mm" y="1.000mm" width="0.400mm" height="15.000mm" style="fill:black;"/>
        <rect x="122.740mm" y="1.000mm" width="0.400mm" height="15.000mm" style="fill:black;"/>
        <rect x="123.540mm" y="1.000mm" width="0.400mm" height="15.000mm" style="fill:black;"/>
        <rect x="124.340mm" y="1.000mm" width="0.400mm" height="15.000mm" style="fill:black;"/>
        <rect x="125.140mm" y="1.000mm" width="0.400mm" height="15.000mm" style="fill:black;"/>
        <rect x="125.740mm" y="1.000mm" width="0.200mm" height="15.000mm" style="fill:black;"/>
        <rect x="126.740mm" y="1.000mm" width="0.200mm" height="15.000mm" style="fill:black;"/>
        <rect x="127.140mm" y="1.000mm" width="0.400mm" height="15.000mm" style="fill:black;"/>
        <rect x="127.940mm" y="1.000mm" width="0.200mm" height="15.000mm" style="fill:black;"/>
        <rect x="128.540mm" y="1.000mm" width="0.200mm" height="15.000mm" style="fill:black;"/>
        <rect x="128.940mm" y="1.000mm" width="0.400mm" height="15.000mm" style="fill:black;"/>
        <rect x="130.140mm" y="1.000mm" width="0.200mm" height="15.000mm" style="fill:black;"/>
        <rect x="130.740mm" y="1.000mm" width="0.800mm" height="15.000mm" style="fill:black;"/>
        <rect x="131.740mm" y="1.000mm" width="0.200mm" height="15.000mm" style="fill:black;"/>
        <rect x="132.340mm" y="1.000mm" width="0.200mm" height="15.000mm" style="fill:black;"/>
        <rect x="132.740mm" y="1.000mm" width="0.400mm" height="15.000mm" style="fill:black;"/>
        <rect x="133.540mm" y="1.000mm" width="0.200mm" height="15.000mm" style="fill:black;"/>
        <rect x="134.540mm" y="1.000mm" width="0.200mm" height="15.000mm" style="fill:black;"/>
        <rect x="135.140mm" y="1.000mm" width="0.400mm" height="15.000mm" style="fill:black;"/>
        <rect x="135.740mm" y="1.000mm" width="0.200mm" height="15.000mm" style="fill:black;"/>
        <rect x="136.740mm" y="1.000mm" width="0.200mm" height="15.000mm" style="fill:black;"/>
        <rect x="137.540mm" y="1.000mm" width="0.800mm" height="15.000mm" style="fill:black;"/>
        <rect x="138.540mm" y="1.000mm" width="0.200mm" height="15.000mm" style="fill:black;"/>
        <rect x="138.940mm" y="1.000mm" width="0.200mm" height="15.000mm" style="fill:black;"/>
        <rect x="139.540mm" y="1.000mm" width="0.200mm" height="15.000mm" style="fill:black;"/>
        <rect x="140.140mm" y="1.000mm" width="0.800mm" height="15.000mm" style="fill:black;"/>
        <rect x="141.140mm" y="1.000mm" width="0.400mm" height="15.000mm" style="fill:black;"/>
        <rect x="141.740mm" y="1.000mm" width="0.400mm" height="15.000mm" style="fill:black;"/>
        <rect x="142.340mm" y="1.000mm" width="0.800mm" height="15.000mm" style="fill:black;"/>
        <rect x="143.340mm" y="1.000mm" width="0.400mm" height="15.000mm" style="fill:black;"/>
        <rect x="144.140mm" y="1.000mm" width="0.400mm" height="15.000mm" style="fill:black;"/>
        <rect x="144.940mm" y="1.000mm" width="0.400mm" height="15.000mm" style="fill:black;"/>
        <rect x="145.540mm" y="1.000mm" width="0.600mm" height="15.000mm" style="fill:black;"/>
        <rect x="146.540mm" y="1.000mm" width="0.200mm" height="15.000mm" style="fill:black;"/>
        <rect x="147.140mm" y="1.000mm" width="0.400mm" height="15.000mm" style="fill:black;"/>
        <rect x="147.740mm" y="1.000mm" width="0.400mm" height="15.000mm" style="fill:black;"/>
        <rect x="148.340mm" y="1.000mm" width="0.400mm" height="15.000mm" style="fill:black;"/>
        <rect x="149.140mm" y="1.000mm" width="0.400mm" height="15.000mm" style="fill:black;"/>
        <rect x="149.940mm" y="1.000mm" width="0.400mm" height="15.000mm" style="fill:black;"/>
        <rect x="150.740mm" y="1.000mm" width="0.400mm" height="15.000mm" style="fill:black;"/>
        <rect x="151.540mm" y="1.000mm" width="0.400mm" height="15.000mm" style="fill:black;"/>
        <rect x="152.140mm" y="1.000mm" width="0.600mm" height="15.000mm" style="fill:black;"/>
        <rect x="152.940mm" y="1.000mm" width="0.800mm" height="15.000mm" style="fill:black;"/>
        <rect x="153.940mm" y="1.000mm" width="0.200mm" height="15.000mm" style="fill:black;"/>
        <rect x="154.340mm" y="1.000mm" width="0.200mm" height="15.000mm" style="fill:black;"/>
        <rect x="154.940mm" y="1.000mm" width="0.800mm" height="15.000mm" style="fill:black;"/>
        <rect x="156.140mm" y="1.000mm" width="0.200mm" height="15.000mm" style="fill:black;"/>
        <rect x="156.540mm" y="1.000mm" width="0.200mm" height="15.000mm" style="fill:black;"/>
        <rect x="157.540mm" y="1.000mm" width="0.200mm" height="15.000mm" style="fill:black;"/>
        <rect x="157.940mm" y="1.000mm" width="0.400mm" height="15.000mm" style="fill:black;"/>
        <rect x="158.740mm" y="1.000mm" width="0.600mm" height="15.000mm" style="fill:black;"/>
        <rect x="159.540mm" y="1.000mm" width="0.400mm" height="15.000mm" style="fill:black;"/>
        <rect x="160.140mm" y="1.000mm" width="0.600mm" height="15.000mm" style="fill:black;"/>
        <rect x="160.940mm" y="1.000mm" width="0.600mm" height="15.000mm" style="fill:black;"/>
        <rect x="161.940mm" y="1.000mm" width="0.200mm" height="15.000mm" style="fill:black;"/>
        <rect x="162.340mm" y="1.000mm" width="0.400mm" height="15.000mm" style="fill:black;"/>
        <rect x="163.140mm" y="1.000mm" width="0.200mm" height="15.000mm" style="fill:black;"/>
        <rect x="163.740mm" y="1.000mm" width="0.600mm" height="15.000mm" style="fill:black;"/>
        <rect x="164.540mm" y="1.000mm" width="0.400mm" height="15.000mm" style="fill:black;"/>
        <rect x="165.340mm" y="1.000mm" width="0.600mm" height="15.000mm" style="fill:black;"/>
        <rect x="166.140mm" y="1.000mm" width="0.800mm" height="15.000mm" style="fill:black;"/>
        <rect x="167.140mm" y="1.000mm" width="0.200mm" height="15.000mm" style="fill:black;"/>
        <rect x="167.540mm" y="1.000mm" width="0.200mm" height="15.000mm" style="fill:black;"/>
        <rect x="168.140mm" y="1.000mm" width="0.800mm" height="15.000mm" style="fill:black;"/>
        <rect x="169.340mm" y="1.000mm" width="0.200mm" height="15.000mm" style="fill:black;"/>
        <rect x="169.740mm" y="1.000mm" width="0.200mm" height="15.000mm" style="fill:black;"/>
        <rect x="170.740mm" y="1.000mm" width="0.200mm" height="15.000mm" style="fill:black;"/>
        <rect x="171.140mm" y="1.000mm" width="0.400mm" height="15.000mm" style="fill:black;"/>
        <rect x="171.940mm" y="1.000mm" width="0.600mm" height="15.000mm" style="fill:black;"/>
        <rect x="172.740mm" y="1.000mm" width="0.200mm" height="15.000mm" style="fill:black;"/>
        <rect x="173.340mm" y="1.000mm" width="0.400mm" height="15.000mm" style="fill:black;"/>
        <rect x="174.140mm" y="1.000mm" width="0.200mm" height="15.000mm" style="fill:black;"/>
        <rect x="174.740mm" y="1.000mm" width="0.600mm" height="15.000mm" style="fill:black;"/>
        <rect x="175.540mm" y="1.000mm" width="0.400mm" height="15.000mm" style="fill:black;"/>
        <rect x="176.340mm" y="1.000mm" width="0.400mm" height="15.000mm" style="fill:black;"/>
        <rect x="177.140mm" y="1.000mm" width="0.200mm" height="15.000mm" style="fill:black;"/>
        <rect x="177.740mm" y="1.000mm" width="0.600mm" height="15.000mm" style="fill:black;"/>
        <rect x="178.540mm" y="1.000mm" width="0.600mm" height="15.000mm" style="fill:black;"/>
        <rect x="179.340mm" y="1.000mm" width="0.800mm" height="15.000mm" style="fill:black;"/>
        <rect x="180.340mm" y="1.000mm" width="0.200mm" height="15.000mm" style="fill:black;"/>
        <rect x="180.740mm" y="1.000mm" width="0.200mm" height="15.000mm" style="fill:black;"/>
        <rect x="181.340mm" y="1.000mm" width="0.800mm" height="15.000mm" style="fill:black;"/>
        <rect x="182.540mm" y="1.000mm" width="0.200mm" height="15.000mm" style="fill:black;"/>
        <rect x="182.940mm" y="1.000mm" width="0.200mm" height="15.000mm" style="fill:black;"/>
        <rect x="183.540mm" y="1.000mm" width="0.200mm" height="15.000mm" style="fill:black;"/>
        <rect x="183.940mm" y="1.000mm" width="0.400mm" height="15.000mm" style="fill:black;"/>
        <rect x="185.140mm" y="1.000mm" width="0.200mm" height="15.000mm" style="fill:black;"/>
        <rect x="186.140mm" y="1.000mm" width="0.200mm" height="15.000mm" style="fill:black;"/>
        <rect x="186.540mm" y="1.000mm" width="0.400mm" height="15.000mm" style="fill:black;"/>
        <rect x="187.340mm" y="1.000mm" width="0.600mm" height="15.000mm" style="fill:black;"/>
        <rect x="188.140mm" y="1.000mm" width="0.400mm" height="15.000mm" style="fill:black;"/>
        <rect x="188.740mm" y="1.000mm" width="0.600mm" height="15.000mm" style="fill:black;"/>
        <rect x="189.540mm" y="1.000mm" width="0.200mm" height="15.000mm" style="fill:black;"/>
        <rect x="190.140mm" y="1.000mm" width="0.600mm" height="15.000mm" style="fill:black;"/>
        <rect x="190.940mm" y="1.000mm" width="0.400mm" height="15.000mm" style="fill:black;"/>
        <rect x="191.740mm" y="1.000mm" width="0.400mm" height="15.000mm" style="fill:black;"/>
        <rect x="192.540mm" y="1.000mm" width="0.400mm" height="15.000mm" style="fill:black;"/>
        <rect x="193.340mm" y="1.000mm" width="0.400mm" height="15.000mm" style="fill:black;"/>
        <rect x="193.940mm" y="1.000mm" width="0.200mm" height="15.000mm" style="fill:black;"/>
        <rect x="194.340mm" y="1.000mm" width="0.200mm" height="15.000mm" style="fill:black;"/>
        <rect x="195.140mm" y="1.000mm" width="0.800mm" height="15.000mm" style="fill:black;"/>
        <rect x="196.140mm" y="1.000mm" width="0.800mm" height="15.000mm" style="fill:black;"/>
        <rect x="197.140mm" y="1.000mm" width="0.200mm" height="15.000mm" style="fill:black;"/>
        <rect x="197.540mm" y="1.000mm" width="0.600mm" height="15.000mm" style="fill:black;"/>
        <rect x="198.340mm" y="1.000mm" width="0.400mm" height="15.000mm" style="fill:black;"/>
        <rect x="199.340mm" y="1.000mm" width="0.600mm" height="15.000mm" style="fill:black;"/>
        <rect x="200.140mm" y="1.000mm" width="0.200mm" height="15.000mm" style="fill:black;"/>
        <rect x="200.540mm" y="1.000mm" width="0.400mm" height="15.000mm" style="fill:black;"/>
        <text x="101.740mm" y="21.000mm" style="fill:black;font-size:10pt;text-anchor:middle;">{&quot;item_code&quot;: &quot;sample&quot;, &quot;name&quot;: &quot;\uc790\ubb3c\uc1e0&quot;, &quot;category&quot;: &quot;\uc790\uc804\uac70&quot;}</text>
    </g>
</svg>
